<svg width="20" height="16" viewBox="0 0 20 16" fill="none" xmlns="http://www.w3.org/2000/svg">
<path d="M12.483 8.16845L13.6189 7.03251C13.7016 7.34173 13.75 7.66501 13.75 8.00001C13.75 10.0678 12.0678 11.75 10 11.75C9.665 11.75 9.34172 11.7016 9.0325 11.6189L10.1684 10.483C11.4105 10.3983 12.3983 9.41048 12.483 8.16845ZM19.9212 7.69641C19.8444 7.55813 18.7541 5.64767 16.6228 4.0286L15.7133 4.93813C17.2673 6.08079 18.252 7.41344 18.6397 8.00095C17.8989 9.12891 14.993 13 10 13C9.25125 13 8.555 12.9042 7.89984 12.7514L6.87281 13.7784C7.81703 14.068 8.85484 14.25 10 14.25C16.5427 14.25 19.7864 8.54626 19.9212 8.3036C20.0263 8.1147 20.0263 7.88532 19.9212 7.69641ZM17.3169 1.56688L3.56687 15.3169C3.44484 15.4389 3.28484 15.5 3.125 15.5C2.96516 15.5 2.80516 15.4389 2.68313 15.3169C2.43891 15.0727 2.43891 14.6772 2.68313 14.4331L4.4325 12.6838C1.60437 10.9764 0.167344 8.46313 0.07875 8.3036C-0.02625 8.1147 -0.02625 7.88516 0.07875 7.69626C0.213594 7.45376 3.45734 1.75001 10 1.75001C11.6917 1.75001 13.157 2.13595 14.4097 2.70657L16.4331 0.683134C16.6773 0.438915 17.0728 0.438915 17.3169 0.683134C17.5609 0.927352 17.5611 1.32282 17.3169 1.56688ZM5.36453 11.7517L6.94687 10.1694C6.50984 9.55626 6.25 8.8086 6.25 8.00001C6.25 5.9322 7.93219 4.25001 10 4.25001C10.8086 4.25001 11.5563 4.50985 12.1694 4.94673L13.4489 3.6672C12.438 3.26235 11.2892 3.00001 10 3.00001C5.00703 3.00001 2.10109 6.8711 1.36047 7.99907C1.83078 8.71188 3.18266 10.5163 5.36453 11.7517ZM7.85422 9.26188L11.2619 5.85423C10.8902 5.6347 10.4622 5.50001 10 5.50001C8.62156 5.50001 7.5 6.62157 7.5 8.00001C7.5 8.4622 7.63469 8.89016 7.85422 9.26188Z" fill="#304059"/>
</svg>
