<svg width="24" height="24" viewBox="0 0 24 24" fill="none" xmlns="http://www.w3.org/2000/svg">
<path d="M21.8729 11.9846C21.6942 11.7402 17.4371 6 11.9999 6C6.56275 6 2.30539 11.7402 2.12691 11.9844C1.9577 12.2163 1.9577 12.5308 2.12691 12.7626C2.30539 13.0071 6.56275 18.7473 11.9999 18.7473C17.4371 18.7473 21.6942 13.007 21.8729 12.7628C22.0424 12.531 22.0424 12.2163 21.8729 11.9846ZM11.9999 17.4286C7.99486 17.4286 4.52606 13.6187 3.49922 12.3732C4.52473 11.1266 7.98627 7.31868 11.9999 7.31868C16.0048 7.31868 19.4733 11.1279 20.5006 12.3741C19.4751 13.6206 16.0136 17.4286 11.9999 17.4286Z" fill="#304059"/>
<path d="M12 8.41757C9.81868 8.41757 8.04395 10.1923 8.04395 12.3736C8.04395 14.555 9.81868 16.3297 12 16.3297C14.1813 16.3297 15.9561 14.555 15.9561 12.3736C15.9561 10.1923 14.1813 8.41757 12 8.41757ZM12 15.011C10.5457 15.011 9.36266 13.8279 9.36266 12.3736C9.36266 10.9194 10.5457 9.73629 12 9.73629C13.4543 9.73629 14.6374 10.9194 14.6374 12.3736C14.6374 13.8279 13.4543 15.011 12 15.011Z" fill="#304059"/>
</svg>
