<svg width="24" height="24" viewBox="0 0 24 24"  xmlns="http://www.w3.org/2000/svg">
<g id="Plan">
<path id="Subtract" fill-rule="evenodd" clip-rule="evenodd" d="M3 6.75C3 5.75544 3.39509 4.80161 4.09835 4.09835C4.80161 3.39509 5.75544 3 6.75 3H17.25C18.2446 3 19.1984 3.39509 19.9016 4.09835C20.6049 4.80161 21 5.75544 21 6.75V17.25C21 18.2446 20.6049 19.1984 19.9016 19.9016C19.1984 20.6049 18.2446 21 17.25 21H6.75C5.75544 21 4.80161 20.6049 4.09835 19.9016C3.39509 19.1984 3 18.2446 3 17.25V6.75ZM12.1039 8.15369C12.0619 8.25493 12.0005 8.34691 11.923 8.42439L9.42301 10.9244C9.3456 11.002 9.25364 11.0636 9.1524 11.1056C9.05115 11.1476 8.94262 11.1692 8.83301 11.1692C8.72339 11.1692 8.61486 11.1476 8.51362 11.1056C8.41237 11.0636 8.32041 11.002 8.24301 10.9244L6.99634 9.67772C6.83986 9.52124 6.75195 9.30901 6.75195 9.08772C6.75195 8.86643 6.83986 8.6542 6.99634 8.49772C7.15282 8.34124 7.36505 8.25333 7.58634 8.25333C7.80763 8.25333 8.01986 8.34124 8.17634 8.49772L8.83301 9.15605L10.743 7.24439C10.8205 7.16691 10.9125 7.10545 11.0137 7.06351C11.1149 7.02158 11.2234 7 11.333 7C11.4426 7 11.5511 7.02158 11.6523 7.06351C11.7535 7.10545 11.8455 7.16691 11.923 7.24439C12.0005 7.32187 12.0619 7.41385 12.1039 7.51508C12.1458 7.61631 12.1674 7.72481 12.1674 7.83439C12.1674 7.94396 12.1458 8.05246 12.1039 8.15369ZM14.0771 8.9118C14.2334 8.75552 14.4453 8.66772 14.6663 8.66772H18.4163C18.6374 8.66772 18.8493 8.75552 19.0056 8.9118C19.1619 9.06808 19.2497 9.28004 19.2497 9.50105C19.2497 9.72207 19.1619 9.93403 19.0056 10.0903C18.8493 10.2466 18.6374 10.3344 18.4163 10.3344H14.6663C14.4453 10.3344 14.2334 10.2466 14.0771 10.0903C13.9208 9.93403 13.833 9.72207 13.833 9.50105C13.833 9.28004 13.9208 9.06808 14.0771 8.9118ZM11.923 15.5936C12.0005 15.5161 12.0619 15.4241 12.1039 15.3229C12.1458 15.2217 12.1674 15.1131 12.1674 15.0036C12.1674 14.894 12.1458 14.7855 12.1039 14.6843C12.0619 14.583 12.0005 14.4911 11.923 14.4136C11.8455 14.3361 11.7535 14.2746 11.6523 14.2327C11.5511 14.1908 11.4426 14.1692 11.333 14.1692C11.2234 14.1692 11.1149 14.1908 11.0137 14.2327C10.9125 14.2746 10.8205 14.3361 10.743 14.4136L8.83301 16.3252L8.17634 15.6669C8.01986 15.5104 7.80763 15.4225 7.58634 15.4225C7.36505 15.4225 7.15282 15.5104 6.99634 15.6669C6.83986 15.8234 6.75195 16.0356 6.75195 16.2569C6.75195 16.4782 6.83986 16.6904 6.99634 16.8469L8.24301 18.0936C8.32041 18.1712 8.41237 18.2328 8.51362 18.2748C8.61486 18.3168 8.72339 18.3384 8.83301 18.3384C8.94262 18.3384 9.05115 18.3168 9.1524 18.2748C9.25364 18.2328 9.3456 18.1712 9.42301 18.0936L11.923 15.5936ZM14.6663 15.8369C14.4453 15.8369 14.2334 15.9247 14.0771 16.081C13.9208 16.2373 13.833 16.4492 13.833 16.6702C13.833 16.8913 13.9208 17.1032 14.0771 17.2595C14.2334 17.4158 14.4453 17.5036 14.6663 17.5036H18.4163C18.6374 17.5036 18.8493 17.4158 19.0056 17.2595C19.1619 17.1032 19.2497 16.8913 19.2497 16.6702C19.2497 16.4492 19.1619 16.2373 19.0056 16.081C18.8493 15.9247 18.6374 15.8369 18.4163 15.8369H14.6663Z" />
</g>
</svg>
